<?xml version="1.0" standalone="no"?>
<!DOCTYPE svg PUBLIC "-//W3C//DTD SVG 20010904//EN"
 "http://www.w3.org/TR/2001/REC-SVG-20010904/DTD/svg10.dtd">
<svg version="1.0" xmlns="http://www.w3.org/2000/svg"
 width="804.000000pt" height="804.000000pt" viewBox="0 0 804.000000 804.000000"
 preserveAspectRatio="xMidYMid meet">
<metadata>
Created by potrace 1.14, written by Peter Selinger 2001-2017
</metadata>
<g transform="translate(0.000000,804.000000) scale(0.100000,-0.100000)"
fill="#000000" stroke="none">
<path d="M1929 7933 c-2 -196 0 -215 17 -234 22 -25 12 -46 -28 -54 -18 -4
-43 -19 -56 -32 -12 -13 -27 -21 -34 -17 -6 4 -8 3 -5 -2 3 -6 -12 -21 -34
-34 -21 -14 -39 -28 -39 -33 0 -4 -10 -19 -22 -32 -39 -41 -46 -51 -75 -106
-15 -30 -32 -57 -38 -61 -5 -4 -7 -8 -3 -8 4 0 1 -21 -7 -47 -13 -41 -15 -494
-15 -3250 0 -2559 2 -3203 12 -3204 7 -1 20 -1 29 0 11 1 20 -13 29 -46 8 -26
24 -66 36 -89 12 -23 20 -45 17 -48 -4 -3 -1 -6 6 -6 7 0 9 -5 6 -10 -3 -6 -2
-10 3 -10 5 0 16 -17 25 -37 16 -37 36 -73 47 -83 3 -3 21 -25 40 -50 81 -106
264 -264 330 -285 11 -4 20 -11 20 -16 0 -5 9 -9 20 -9 11 0 20 -4 20 -10 0
-5 9 -10 20 -10 11 0 20 -3 20 -8 0 -4 36 -19 80 -32 74 -23 80 -27 75 -48 -6
-26 0 -27 38 -7 22 11 38 12 75 4 43 -9 262 -13 322 -5 14 1 26 10 28 18 2 9
13 15 28 16 20 0 25 -5 21 -19 -6 -22 11 -26 19 -4 8 19 108 19 125 -1 14 -17
30 -18 27 -1 -2 7 9 13 26 15 23 3 28 0 23 -13 -8 -20 20 -32 36 -16 8 8 8 11
-1 11 -7 0 -12 7 -12 15 0 23 47 19 53 -4 5 -22 46 -28 145 -23 53 3 62 6 62
23 0 16 7 19 44 19 44 0 51 -8 32 -38 -7 -11 158 -13 965 -8 536 4 1005 9
1044 12 38 4 79 12 90 19 11 8 40 19 65 25 48 12 97 31 142 56 15 8 41 16 57
17 16 1 27 5 25 9 -3 4 17 21 43 38 26 16 62 41 80 55 18 15 33 25 35 24 2 -1
19 13 39 32 20 19 45 41 55 50 10 9 37 40 59 69 22 29 47 60 55 69 9 9 27 33
40 53 14 21 28 38 33 38 4 0 7 6 7 14 0 7 7 19 15 26 8 7 15 21 15 32 0 11 6
32 14 46 8 15 22 47 32 72 18 43 19 150 19 3300 l0 3255 -24 50 c-12 28 -33
70 -45 94 -25 52 -152 185 -186 196 -13 4 -29 13 -36 19 -6 7 -31 18 -55 25
-24 7 -53 17 -64 21 -41 17 -148 29 -282 32 -13 0 -23 3 -23 7 0 8 -179 6
-326 -4 -68 -4 -104 -3 -109 4 -8 13 -62 15 -69 2 -9 -15 -56 -21 -193 -27
l-133 -6 -2 73 c-1 41 -3 88 -4 104 -1 17 -3 54 -3 83 l-1 52 -612 -1 c-337 0
-647 -4 -688 -8 -41 -5 -79 -4 -85 0 -14 14 -65 11 -66 -3 -1 -7 -1 -58 -1
-113 0 -55 -3 -104 -6 -109 -3 -6 -4 -32 -3 -58 2 -38 -1 -48 -13 -48 -9 0
-16 5 -16 11 0 5 -5 7 -11 4 -6 -4 -136 -8 -291 -9 -332 -1 -309 -10 -307 124
1 78 -1 91 -31 148 l-33 62 -399 0 -398 0 -1 -107z m4305 -1367 c15 -7 39 -29
52 -47 23 -30 25 -41 20 -92 -3 -32 -13 -65 -21 -73 -8 -9 -15 -19 -15 -23 0
-15 -46 -28 -107 -30 -58 -2 -63 0 -101 36 -38 36 -41 42 -38 88 1 28 6 59 11
70 12 28 65 76 76 69 5 -3 9 -1 9 4 0 14 85 14 114 -2z m-4285 -57 c39 -23 63
-78 55 -126 -3 -21 -10 -40 -15 -41 -5 -2 -7 -7 -4 -12 8 -12 -63 -70 -88 -71
-50 -2 -93 4 -117 17 -14 7 -22 13 -17 14 4 0 -2 9 -13 20 -43 43 -15 160 49
198 43 26 109 26 150 1z m4048 -5865 c6 -9 15 -14 20 -13 22 7 61 -82 54 -124
-1 -4 -3 -18 -5 -30 -3 -12 -5 -25 -5 -29 -2 -13 -55 -57 -63 -52 -4 3 -8 1
-8 -4 0 -5 -21 -12 -47 -15 -60 -6 -116 20 -140 66 -19 36 -27 113 -12 122 5
4 9 14 9 24 0 22 37 56 75 68 40 13 107 6 122 -13z m-3767 -4 c26 -14 60 -56
65 -81 17 -85 17 -92 7 -85 -6 3 -8 -1 -5 -12 5 -21 -26 -59 -63 -78 -29 -16
-100 -19 -108 -5 -3 4 -19 11 -34 14 -33 7 -62 56 -62 104 0 43 20 103 36 110
8 3 14 10 14 17 0 28 105 39 150 16z"/>
</g>
</svg>
